HIERARCHY
ROOT Hips
{
	OFFSET 0.000000 0.000000 0.000000 
	CHANNELS 6 Xposition Yposition Zposition Yrotation Zrotation Xrotation 
	JOINT Lumbar
	{
		OFFSET 0.000000 0.000000 0.000000 
		CHANNELS 3 Zrotation Xrotation Yrotation
		JOINT Neck
		{
			OFFSET 0.000000 0.445665 0.000000 
			CHANNELS 3 Zrotation Xrotation Yrotation
			End Site
			{
				OFFSET 0.000000 0.227535 0.000000 
			}
		}
		JOINT RightShoulder
		{
			OFFSET 0.019635 0.377685 0.194865 
			CHANNELS 3 Zrotation Xrotation Yrotation
			JOINT RightElbow
			{
				OFFSET 0.000000 -0.243375 0.000000 
				CHANNELS 2 Zrotation Yrotation
				JOINT RightWrist
				{
					OFFSET 0.000000 -0.264825 0.000000 
					CHANNELS 2 Zrotation Xrotation
					End Site
					{
						OFFSET 0.006600 -0.176220 0.000990 
					}
				}
			}
		}
		JOINT LeftShoulder
		{
			OFFSET 0.019635 0.377685 -0.194865 
			CHANNELS 3 Zrotation Xrotation Yrotation
			JOINT LeftElbow
			{
				OFFSET 0.000000 -0.243375 0.000000 
				CHANNELS 2 Zrotation Yrotation
				JOINT LeftWrist
				{
					OFFSET 0.000000 -0.264825 0.000000 
					CHANNELS 2 Zrotation Xrotation
					End Site
					{
						OFFSET 0.006600 -0.176220 -0.000990 
					}
				}
			}
		}
	}
	JOINT RightHip
	{
		OFFSET 0.052140 -0.069960 0.075570 
		CHANNELS 3 Zrotation Xrotation Yrotation
		JOINT RightKnee
		{
			OFFSET 0.000000 -0.402270 0.000000 
			CHANNELS 1 Zrotation
			JOINT RightAnkle
			{
				OFFSET 0.000000 -0.404085 0.000000 
				CHANNELS 3 Zrotation Xrotation Yrotation
				End Site
				{
					OFFSET 0.204105 -0.089430 0.008415 
				}
			}
		}
	}
	JOINT LeftHip
	{
		OFFSET 0.052140 -0.069960 -0.075570 
		CHANNELS 3 Zrotation Xrotation Yrotation
		JOINT LeftKnee
		{
			OFFSET 0.000000 -0.402270 0.000000 
			CHANNELS 1 Zrotation
			JOINT LeftAnkle
			{
				OFFSET 0.000000 -0.404085 0.000000 
				CHANNELS 3 Zrotation Xrotation Yrotation
				End Site
				{
					OFFSET 0.204105 -0.089430 -0.008415 
				}
			}
		}
	}
}
MOTION
Frames: 30
Frame Time: 0.02
-0.00013 -1e-05 0.00033 22.0961 -23.84343 -7.41103 41.92333 2.63711 -3.41411 -11.58414 -1.39383 -1.06834 89.74008 -95.23871 -87.12853 5.78734 63.72643 -13.0776 1.30711 86.51044 101.3639 -55.63324 5.78719 -105.00541 11.52674 -3.36403 38.75986 -2.63121 -7.32907 -22.18311 -6.75052 -2.19453 -3.2961 42.33082 7.79491 3.13479 -27.65985 -6.52623 2.02963 3.21313
-0.00018 -1e-05 0.00041 22.13962 -23.8438 -7.42158 41.92511 2.64177 -3.39619 -11.59375 -1.3791 -1.06882 89.84642 -95.23936 -87.13032 5.78729 63.8205 -13.0881 1.31851 86.57015 101.33526 -55.63332 5.78716 -104.99377 11.55046 -3.33559 38.75264 -2.65227 -7.5013 -22.18423 -6.75008 -2.17833 -3.28873 42.34232 7.82105 3.21435 -27.66027 -6.52742 2.01855 3.20788
-0.00023 -1e-05 0.00049 22.1831 -23.84407 -7.43208 41.92688 2.64641 -3.37834 -11.6034 -1.36439 -1.06931 89.95231 -95.23997 -87.13211 5.78725 63.91438 -13.09861 1.32991 86.62972 101.30667 -55.63341 5.78713 -104.98216 11.57417 -3.30722 38.74531 -2.67328 -7.67307 -22.18533 -6.74964 -2.16218 -3.28139 42.35366 7.8472 3.29411 -27.66068 -6.52862 2.00747 3.20262
-0.00027 -1e-05 0.00058 22.2265 -23.84442 -7.44259 41.92865 2.65105 -3.36047 -11.613 -1.34969 -1.06979 90.05829 -95.24061 -87.1339 5.7872 64.00818 -13.10909 1.34128 86.68924 101.27811 -55.63349 5.78711 -104.97056 11.59783 -3.27886 38.73809 -2.69428 -7.84479 -22.18644 -6.7492 -2.14603 -3.27405 42.3651 7.87327 3.37351 -27.6611 -6.52982 1.99642 3.19738
-0.00032 -1e-05 0.00066 22.26991 -23.84491 -7.45314 41.93046 2.65573 -3.34253 -11.62252 -1.335 -1.07027 90.16478 -95.24129 -87.13569 5.78716 64.10213 -13.11953 1.35264 86.74889 101.24953 -55.63358 5.78708 -104.95894 11.62145 -3.25045 38.73105 -2.71531 -8.01694 -22.18756 -6.74877 -2.12982 -3.26668 42.37675 7.89929 3.45253 -27.66152 -6.53101 1.98538 3.19215
-0.00037 -2e-05 0.00074 22.31355 -23.84476 -7.46356 41.93213 2.6603 -3.32488 -11.63244 -1.32024 -1.07076 90.26945 -95.24175 -87.13746 5.78711 64.19584 -13.13019 1.36413 86.80829 101.22092 -55.63366 5.78705 -104.94734 11.64537 -3.22214 38.7231 -2.73628 -8.18789 -22.18864 -6.74832 -2.11379 -3.2594 42.38744 7.92572 3.5338 -27.66191 -6.53221 1.9742 3.18682
-0.00042 -2e-05 0.00083 22.35667 -23.84586 -7.47423 41.93408 2.66507 -3.30666 -11.64157 -1.30562 -1.07123 90.37759 -95.24265 -87.13928 5.78707 64.28995 -13.14042 1.37535 86.86809 101.19238 -55.63375 5.78703 -104.93572 11.66868 -3.19365 38.71696 -2.75736 -8.36108 -22.1898 -6.74789 -2.09742 -3.25196 42.40003 7.95131 3.61053 -27.66238 -6.5334 1.96333 3.18171
-0.00047 -2e-05 0.00091 22.40026 -23.84584 -7.48467 41.93577 2.66966 -3.28896 -11.6514 -1.29087 -1.07171 90.48267 -95.24315 -87.14105 5.78702 64.38367 -13.15101 1.3868 86.92759 101.1638 -55.63383 5.787 -104.92411 11.69253 -3.16536 38.7092 -2.77833 -8.53218 -22.19089 -6.74745 -2.08136 -3.24466 42.41091 7.97763 3.69129 -27.66277 -6.5346 1.95217 3.1764
-0.00051 -2e-05 0.00099 22.44451 -23.84432 -7.49482 41.93713 2.674 -3.27191 -11.66219 -1.27597 -1.07223 90.58344 -95.24315 -87.14274 5.78698 64.47703 -13.16217 1.39859 86.9865 101.13507 -55.63391 5.78697 -104.91253 11.71714 -3.13716 38.69923 -2.79918 -8.70092 -22.19184 -6.74697 -2.06569 -3.23756 42.41951 8.00505 3.77775 -27.66305 -6.5358 1.94065 3.17083
-0.00058 -2e-05 0.00108 22.48524 -23.85104 -7.50662 41.94034 2.67969 -3.25118 -11.66777 -1.26196 -1.07259 90.7073 -95.24599 -87.14486 5.78693 64.57282 -13.17044 1.40863 87.04812 101.10689 -55.63401 5.78694 -104.90085 11.73768 -3.10795 38.70131 -2.82078 -8.88381 -22.19347 -6.74666 -2.04781 -3.22937 42.44067 8.02677 3.83376 -27.66392 -6.53697 1.93119 3.16667
-0.00059 -2e-05 0.00114 22.53319 -23.84061 -7.51493 41.9397 2.68258 -3.23816 -11.68414 -1.24607 -1.07328 90.78356 -95.24288 -87.1461 5.78689 64.66326 -13.18457 1.4222 87.10446 101.07775 -55.63408 5.78692 -104.88932 11.76659 -3.0812 38.67841 -2.84078 -9.03649 -22.19375 -6.74599 -2.03457 -3.22346 42.4357 8.0601 3.95244 -27.66357 -6.53822 1.91741 3.1596
-0.00047 1e-05 0.00107 22.60299 -23.78051 -7.51358 41.92783 2.67737 -3.24706 -11.73223 -1.22494 -1.07491 90.71889 -95.22274 -87.14483 5.78693 64.74071 -13.21686 1.44699 87.14255 101.0444 -55.63409 5.78692 -104.87865 11.82049 -3.05863 38.58244 -2.85653 -9.10796 -22.18963 -6.74426 -2.03427 -3.22388 42.35495 8.12888 4.25795 -27.65954 -6.53969 1.89143 3.14402
-0.0003 4e-05 0.00096 22.67971 -23.70357 -7.50873 41.91212 2.66941 -3.26358 -11.79076 -1.20196 -1.07685 90.6084 -95.19676 -87.1427 5.78698 64.81244 -13.25464 1.47502 87.17595 101.01038 -55.63409 5.78692 -104.86805 11.88241 -3.03898 38.46211 -2.87062 -9.14853 -22.18426 -6.74217 -2.03861 -3.22659 42.2486 8.20865 4.62371 -27.65432 -6.54125 1.86119 3.12562
-0.00016 7e-05 0.00088 22.75192 -23.63615 -7.50553 41.89874 2.66298 -3.27609 -11.84316 -1.17988 -1.07861 90.52555 -95.17386 -87.14103 5.78702 64.88569 -13.28852 1.50061 87.2141 100.97773 -55.63409 5.78691 -104.85709 11.93934 -3.01971 38.35604 -2.88546 -9.20245 -22.17998 -6.74028 -2.04065 -3.22818 42.15675 8.28101 4.95209 -27.64985 -6.54277 1.8331 3.10886
1e-05 0.0001 0.00078 22.8298 -23.5612 -7.50207 41.88331 2.65538 -3.29085 -11.90149 -1.15749 -1.08054 90.41358 -95.14909 -87.13907 5.78707 64.96358 -13.32833 1.53043 87.2416 100.94063 -55.6341 5.78691 -104.84744 12.00198 -2.99334 38.23694 -2.90053 -9.26028 -22.17364 -6.73823 -2.04342 -3.23004 42.05322 8.3635 5.32252 -27.64456 -6.54428 1.80405 3.09059
0.00012 0.00012 0.00069 22.89766 -23.49745 -7.4983 41.8707 2.64953 -3.30284 -11.9499 -1.13535 -1.08219 90.35171 -95.12692 -87.1375 5.78711 65.03035 -13.35713 1.55205 87.28962 100.91259 -55.63409 5.78691 -104.83517 12.05461 -2.98229 38.1386 -2.91443 -9.30132 -22.17114 -6.73643 -2.04589 -3.23194 41.96736 8.42758 5.62001 -27.6406 -6.54583 1.77604 3.07479
8e-05 0.0001 0.00064 22.9346 -23.47333 -7.49466 41.87179 2.64949 -3.30419 -11.96867 -1.11406 -1.08293 90.43679 -95.11242 -87.13725 5.78712 65.06883 -13.35394 1.55149 87.40021 100.90994 -55.63402 5.78693 -104.81485 12.0777 -3.01429 38.10916 -2.92808 -9.31569 -22.18092 -6.73526 -2.04508 -3.23271 41.9421 8.43733 5.69771 -27.64148 -6.5475 1.7515 3.06653
-1e-05 7e-05 0.0006 22.9614 -23.46045 -7.4908 41.87516 2.65127 -3.30264 -11.97703 -1.09316 -1.08338 90.5743 -95.1009 -87.13741 5.78711 65.09618 -13.33954 1.54236 87.53073 100.91637 -55.63392 5.78696 -104.79203 12.09042 -3.06134 38.10069 -2.9402 -9.31238 -22.19439 -6.73437 -2.04402 -3.23354 41.93476 8.4283 5.7005 -27.64362 -6.5492 1.72823 3.06087
-9e-05 4e-05 0.00056 22.99397 -23.43912 -7.48694 41.87391 2.652 -3.30319 -11.98996 -1.07226 -1.08399 90.68958 -95.08866 -87.13737 5.78711 65.1279 -13.33046 1.53631 87.64901 100.91848 -55.63384 5.78699 -104.7709 12.10785 -3.10054 38.07856 -2.95122 -9.30867 -22.20521 -6.73344 -2.04399 -3.23483 41.91523 8.4284 5.74004 -27.64456 -6.55088 1.70466 3.05401
-0.00015 1e-05 0.00051 23.02227 -23.4303 -7.48334 41.88667 2.6535 -3.30089 -12.00398 -1.05052 -1.08453 90.79674 -95.0736 -87.13736 5.78711 65.16213 -13.32064 1.53372 87.78055 100.92141 -55.63375 5.78702 -104.74752 12.12561 -3.14407 38.0718 -2.96942 -9.33776 -22.21993 -6.73212 -2.0404 -3.23425 41.91073 8.42643 5.77059 -27.64794 -6.5526 1.67976 3.0471
-0.00024 -2e-05 0.00047 23.05649 -23.39957 -7.47925 41.87209 2.65394 -3.30354 -12.01309 -1.03068 -1.08512 90.93358 -95.06512 -87.1374 5.78711 65.18881 -13.3096 1.52197 87.8893 100.92479 -55.63368 5.78704 -104.72815 12.14008 -3.18214 38.03984 -2.97274 -9.2969 -22.22765 -6.73169 -2.04393 -3.23743 41.88099 8.42409 5.80085 -27.64674 -6.55424 1.65803 3.04097
-0.00039 -4e-05 0.00047 23.11366 -23.29472 -7.47323 41.77031 2.65035 -3.32232 -12.01127 -1.0156 -1.08591 91.14223 -95.07473 -87.13742 5.78711 65.19525 -13.29796 1.48596 87.92989 100.92736 -55.63367 5.78705 -104.72099 12.1482 -3.20151 37.92012 -2.93191 -9.04906 -22.21321 -6.73379 -2.06866 -3.25201 41.7643 8.42576 5.85243 -27.63083 -6.55573 1.64415 3.03614
-0.00056 -6e-05 0.00048 23.17636 -23.16942 -7.46683 41.64285 2.64573 -3.34585 -12.00478 -1.00252 -1.08676 91.3787 -95.09074 -87.1375 5.78711 65.19488 -13.28544 1.44123 87.94702 100.93005 -55.63367 5.78704 -104.71787 12.15329 -3.21488 37.77675 -2.87685 -8.73504 -22.19195 -6.73676 -2.10026 -3.27017 41.62397 8.4276 5.90556 -27.61057 -6.55714 1.63352 3.03205
-0.00072 -8e-05 0.00048 23.23375 -23.06085 -7.46106 41.53469 2.64203 -3.36602 -12.00035 -0.9888 -1.08759 91.60086 -95.10346 -87.1376 5.78711 65.19903 -13.27327 1.40118 87.97505 100.93259 -55.63367 5.78704 -104.71255 12.15959 -3.23094 37.65305 -2.83053 -8.46334 -22.17511 -6.73924 -2.12774 -3.28604 41.50322 8.42895 5.95483 -27.59347 -6.55855 1.62182 3.0278
-0.00088 -0.00011 0.00049 23.30248 -22.9218 -7.45344 41.39512 2.63657 -3.3911 -11.9959 -0.97392 -1.08839 91.83169 -95.11803 -87.1375 5.78712 65.19677 -13.26092 1.35778 88.00245 100.93585 -55.63367 5.78704 -104.70859 12.16621 -3.24759 37.49296 -2.77439 -8.13914 -22.15291 -6.74211 -2.15947 -3.30476 41.34635 8.43122 6.01375 -27.5715 -6.5601 1.60854 3.02293
-0.00103 -0.00013 0.00049 23.34918 -22.84057 -7.44948 41.31396 2.63443 -3.40721 -11.99042 -0.96197 -1.08926 92.05059 -95.13007 -87.13782 5.78711 65.20641 -13.24885 1.31944 88.02575 100.93752 -55.63368 5.78704 -104.70288 12.17162 -3.2615 37.40208 -2.73553 -7.90902 -22.14012 -6.74439 -2.18391 -3.31835 41.25812 8.43206 6.0553 -27.5585 -6.56136 1.59916 3.01943
-0.00115 -0.00015 0.0005 23.3324 -22.92984 -7.45649 41.40802 2.64229 -3.39643 -11.98421 -0.95727 -1.09033 92.22817 -95.13459 -87.13932 5.78707 65.25051 -13.238 1.29693 88.0398 100.93478 -55.63375 5.78702 -104.69076 12.17408 -3.26804 37.5143 -2.74644 -7.95336 -22.15572 -6.74467 -2.18725 -3.31712 41.37181 8.42692 6.03612 -27.57236 -6.56147 1.60096 3.02011
-0.00126 -0.00016 0.00051 23.29352 -23.07697 -7.46705 41.56033 2.65341 -3.37664 -11.977 -0.95551 -1.09147 92.39301 -95.13604 -87.14122 5.78702 65.3069 -13.22741 1.27998 88.05113 100.93036 -55.63384 5.78699 -104.67685 12.17546 -3.27208 37.6959 -2.77554 -8.0951 -22.18088 -6.74436 -2.18287 -3.31054 41.55424 8.42064 6.00163 -27.59522 -6.56134 1.60639 3.02206
-0.00137 -0.00018 0.00052 23.26573 -23.19362 -7.47545 41.68095 2.66264 -3.36167 -11.96963 -0.95266 -1.09256 92.56419 -95.13825 -87.14288 5.78698 65.35776 -13.21668 1.26061 88.06596 100.92671 -55.63392 5.78696 -104.66417 12.17769 -3.27818 37.84137 -2.79719 -8.19327 -22.20113 -6.74439 -2.18157 -3.30624 41.70053 8.41645 5.98324 -27.61327 -6.56154 1.60931 3.02301
-0.00146 -0.00019 0.00054 23.23388 -23.32685 -7.48612 41.82269 2.67352 -3.34389 -11.96462 -0.94887 -1.09373 92.73325 -95.14365 -87.14479 5.78693 65.40811 -13.20625 1.24014 88.07033 100.9232 -55.63402 5.78693 -104.64991 12.17862 -3.28063 38.00475 -2.81471 -8.28598 -22.22347 -6.74411 -2.18239 -3.3027 41.86595 8.40625 5.92818 -27.63415 -6.56083 1.61578 3.02567
